<?xml version="1.0" standalone="no"?>
<!DOCTYPE svg PUBLIC "-//W3C//DTD SVG 20010904//EN"
 "http://www.w3.org/TR/2001/REC-SVG-20010904/DTD/svg10.dtd">
<svg version="1.0" xmlns="http://www.w3.org/2000/svg"
 width="722.000000pt" height="662.000000pt" viewBox="0 0 722.000000 662.000000"
 preserveAspectRatio="xMidYMid meet">

<g transform="translate(0.000000,662.000000) scale(0.100000,-0.100000)"
fill="#000000" stroke="none">
<path d="M0 3310 l0 -3310 3610 0 3610 0 0 3310 0 3310 -3610 0 -3610 0 0
-3310z m3092 2807 c274 -137 348 -458 193 -841 -158 -392 -467 -854 -1054
-1576 l-125 -153 95 7 c252 19 706 91 1014 161 649 147 1071 297 1537 546
l157 84 129 176 c733 1001 1227 1519 1449 1519 90 0 184 -62 217 -142 45 -107
-19 -312 -162 -525 -154 -228 -423 -491 -782 -764 -109 -82 -478 -328 -601
-399 l-94 -54 -150 -211 c-178 -250 -594 -856 -943 -1375 -139 -206 -349 -517
-467 -690 -118 -173 -215 -317 -215 -320 1 -5 -2 -8 150 171 152 180 242 269
274 269 59 0 39 -92 -49 -227 -32 -48 -180 -290 -328 -538 -297 -496 -451
-735 -520 -809 -42 -44 -49 -48 -79 -42 -47 9 -82 55 -114 152 -47 145 -28
222 142 564 189 383 372 675 957 1530 432 631 849 1234 865 1253 8 9 13 17 10
17 -3 0 -50 -20 -104 -44 -607 -269 -1579 -479 -2465 -534 l-117 -7 -192 -220
c-459 -524 -1141 -1273 -1174 -1289 -90 -42 -211 14 -192 89 3 13 28 57 54 97
348 525 533 891 571 1128 30 181 -12 309 -128 394 -27 20 -52 44 -55 53 -11
28 22 120 58 157 43 46 65 46 168 -4 227 -108 426 -160 678 -176 l105 -7 156
189 c629 763 1077 1444 1169 1776 23 82 27 209 8 269 -16 54 -69 113 -126 140
-39 19 -67 24 -167 27 -422 14 -991 -221 -1570 -648 -212 -156 -415 -345 -516
-480 -80 -107 -89 -128 -89 -208 0 -105 -46 -162 -131 -162 -42 0 -97 33 -117
70 -21 40 -10 136 24 210 84 186 351 460 711 729 541 405 1023 634 1463 696
54 8 160 13 245 12 l150 -2 77 -38z m3283 -2188 c26 -41 -114 -193 -283 -307
-126 -85 -197 -154 -232 -222 -41 -80 6 -64 106 36 71 71 104 90 104 60 0 -7
-9 -25 -20 -39 -28 -36 -25 -40 20 -33 55 9 89 26 96 48 9 31 125 148 145 148
40 0 21 -43 -47 -108 -73 -70 -80 -99 -22 -87 57 12 112 51 146 104 56 87 152
153 152 105 0 -9 -31 -49 -70 -88 -38 -40 -70 -76 -70 -79 0 -4 17 -7 38 -7
55 0 132 49 186 118 95 124 238 235 252 197 8 -21 2 -27 -101 -100 -118 -84
-185 -175 -129 -175 17 0 127 54 167 82 16 11 31 17 35 13 11 -11 -52 -59
-121 -92 -81 -40 -121 -48 -138 -30 -12 12 -22 10 -74 -14 -63 -30 -104 -36
-135 -19 -14 7 -32 4 -72 -15 -57 -26 -107 -32 -139 -14 -15 8 -31 6 -64 -7
-31 -11 -58 -15 -86 -10 -36 6 -46 3 -90 -30 -59 -43 -107 -50 -123 -18 l-11
20 -50 -23 c-58 -26 -100 -30 -109 -8 -4 13 -13 10 -47 -15 -56 -40 -107 -54
-133 -36 -18 11 -27 10 -71 -10 -59 -28 -107 -31 -126 -8 -12 14 -9 24 14 66
16 28 26 52 23 55 -3 3 -18 2 -33 -2 -26 -6 -82 -59 -160 -150 -40 -46 -60
-39 -34 13 32 60 161 234 235 317 76 84 137 131 161 121 33 -12 10 -45 -107
-159 -79 -76 -114 -116 -98 -111 79 25 99 -5 56 -79 -32 -55 -32 -57 2 -57 46
1 102 33 130 74 39 58 109 91 194 92 75 1 82 -6 47 -50 -25 -32 -16 -50 20
-41 41 10 119 64 143 99 12 17 56 69 98 116 260 291 396 407 425 359z m-842
-1335 c15 -14 29 -42 33 -61 14 -73 -11 -113 -192 -305 -70 -74 -148 -78 -188
-8 -80 137 100 400 275 400 37 0 52 -5 72 -26z"/>
<path d="M6390 5739 c-95 -38 -378 -350 -761 -839 -183 -234 -180 -226 -44
-124 412 311 766 658 859 841 31 62 33 94 8 116 -21 19 -27 20 -62 6z"/>
<path d="M1220 3265 c0 -148 -15 -230 -74 -407 -23 -71 -42 -128 -40 -128 2 0
282 319 433 493 51 59 86 107 79 107 -61 0 -322 38 -380 56 -17 5 -18 -5 -18
-121z"/>
<path d="M6259 3848 c-40 -35 -102 -96 -138 -137 -54 -60 -60 -71 -36 -58 62
31 156 110 210 175 30 36 55 70 55 74 0 19 -25 4 -91 -54z"/>
<path d="M5555 3393 c-66 -34 -98 -83 -55 -83 35 0 120 61 120 87 0 17 -28 16
-65 -4z"/>
</g>
</svg>
