<?xml version="1.0" encoding="utf-8"?>
<svg viewBox="501.228 521.621 496.191 115.087" style="enable-background:new 0 0 1700 1200;" xmlns="http://www.w3.org/2000/svg">
  <defs>
    <style type="text/css">
	.st0{fill-rule:evenodd;clip-rule:evenodd;fill:#05DEBA;}
</style>
  </defs>
  <g transform="matrix(1.1347570419311523, 0, 0, 1.177351951599121, 408.8371887207031, 313.8482360839844)" style="">
    <path class="st0" d="M227,249.3l-4.1-12.6h-17.2l-4.1,12.6h-9.2l17.2-49h9.3l17.2,49H227z M214.4,208.8h-0.1c0,0-1.1,4.8-2.1,7.6 l-4.3,13.1h12.8l-4.3-13.1C215.4,213.7,214.4,208.8,214.4,208.8z M238,231.7c0-11.2,6.6-18.4,15.9-18.4c7.7,0,10.1,4.5,10.1,4.5 h0.1c0,0-0.1-0.9-0.1-2v-15.4h8.8v49h-8.3v-2.9c0-1.3,0.1-2.3,0.1-2.3h-0.1c0,0-3,6-11,6C244.1,250.1,238,242.6,238,231.7z M246.8,231.7c0,6.7,3.6,11,8.8,11c4.6,0,8.8-3.3,8.8-11.1c0-5.4-2.9-10.8-8.8-10.8C250.8,220.8,246.8,224.8,246.8,231.7z M279,239.2c0-11.2,15.1-11.9,20.8-11.9h1.2v-0.5c0-4.6-2.9-6.2-6.8-6.2c-5,0-9.7,3.4-9.7,3.4l-3.3-6.3c0,0,5.4-4.3,13.8-4.3 c9.2,0,14.6,5.1,14.6,14v22h-8.1v-2.9c0-1.4,0.1-2.5,0.1-2.5h-0.1c0.1,0-2.7,6.2-10.7,6.2C284.6,250.1,279,246.2,279,239.2z M287.8,238.8c0,2.3,1.7,4.6,5.3,4.6c4.6,0,7.9-5,7.9-9.2v-0.8h-1.5C295.1,233.3,287.8,233.9,287.8,238.8z M316.2,263.1v-49h8v2.6 c0,1.3-0.1,2.4-0.1,2.4h0.1c0,0,3-5.8,11.3-5.8c9.5,0,15.6,7.5,15.6,18.4c0,11.2-6.8,18.4-16.1,18.4c-7,0-10.1-4.8-10.1-4.8h-0.1 c0,0,0.1,1.2,0.1,3v14.8H316.2z M324.7,231.9c0,5.4,3,10.8,8.8,10.8c4.8,0,8.8-3.9,8.8-10.9c0-6.7-3.6-11-8.8-11 C328.9,220.8,324.7,224.1,324.7,231.9z M359.2,236.4v-14.8h-4.6v-7h4.8v-10.1h8.6v10.1h8v7h-8v13.7c0,5.8,4.6,6.6,7,6.6 c1,0,1.6-0.1,1.6-0.1v7.7c0,0-1,0.2-2.7,0.2C368.9,249.7,359.2,248.2,359.2,236.4z M380.1,239.2c0-11.2,15.1-11.9,20.8-11.9h1.2 v-0.5c0-4.6-2.9-6.2-6.8-6.2c-5,0-9.7,3.4-9.7,3.4l-3.3-6.3c0,0,5.4-4.3,13.8-4.3c9.2,0,14.6,5.1,14.6,14v22h-8.1v-2.9 c0-1.4,0.1-2.5,0.1-2.5h-0.1c0.1,0-2.7,6.2-10.7,6.2C385.8,250.1,380.1,246.2,380.1,239.2z M388.9,238.8c0,2.3,1.7,4.6,5.3,4.6 c4.6,0,7.9-5,7.9-9.2v-0.8h-1.5C396.2,233.3,388.9,233.9,388.9,238.8z M425.2,249.3l-12.8-35.2h9.2l7.3,21.8 c0.7,2.1,1.2,5.3,1.2,5.3h0.1c0.1,0,0.6-3.2,1.2-5.3l7.3-21.8h9.2l-12.6,35.2H425.2z M452.5,208.1v-7.8h8.7v7.8H452.5z M452.5,249.3v-35.2h8.8v35.2H452.5z M465.3,245l4-6.1c0,0,3.9,3.9,9.6,3.9c2.5,0,4.6-1.1,4.6-3.2c0-5.2-17.1-4.6-17.1-15.9 c0-6.6,5.9-10.3,13.4-10.3c7.9,0,11.8,4,11.8,4l-3.2,6.5c0,0-3.2-3-8.6-3c-2.3,0-4.5,1-4.5,3.2c0,5,17.1,4.3,17.1,15.7 c0,5.9-5.1,10.6-13.4,10.6C470.2,250.1,465.3,245,465.3,245z M500.3,236.4v-14.8h-4.6v-7h4.8v-10.1h8.6v10.1h8v7h-8v13.7 c0,5.8,4.6,6.6,7,6.6c1,0,1.6-0.1,1.6-0.1v7.7c0,0-1,0.2-2.7,0.2C510.1,249.7,500.3,248.2,500.3,236.4z" style="fill: rgb(22, 27, 49);"/>
    <path class="st1" d="M156.5,228.8c11,0,19.9,8.9,19.9,19.9s-8.9,19.9-19.9,19.9s-19.9-8.9-19.9-19.9S145.5,228.8,156.5,228.8z M129.5,182.1c11,0,19.9,8.9,19.9,19.9c0,6.8-3.4,12.7-8.5,16.3c-10.9,5.7-18.4,17-18.5,30.2c0,11.2-8.9,20.1-19.9,20.1 s-19.9-8.9-19.9-19.9c0-7.7,4.4-14.4,10.8-17.7c9.5-5.9,15.9-16.3,16.2-28.2V202l0,0C109.6,191,118.5,182.1,129.5,182.1z" style="clip-rule: evenodd; fill: rgb(236, 102, 59); fill-rule: evenodd;"/>
  </g>
</svg>