<svg width="179" height="41" viewBox="0 0 179 41" xmlns="http://www.w3.org/2000/svg" xmlns:xlink="http://www.w3.org/1999/xlink">
 <g id="Symbols" stroke="none" stroke-width="1" fill="none" fill-rule="evenodd">
  <g id="Footer" transform="translate(-116 -75)" fill="#000">
   <path d="M279.061291,84.8043478 L285.281477,102.305415 L291.942778,84.8043478 L295,84.8043478 C288.929098,100.529937 285.628771,108.909738 285.131674,109.993458 C284.441234,111.624474 283.648678,112.853174 282.761265,113.786219 C282.019508,114.629687 281.132094,115.169735 280.193365,115.512507 C279.460419,115.765185 278.568859,115.912754 277.63013,115.957283 C277.287501,116.014239 276.888372,116.014239 276.395423,115.957283 L276.395423,115.957283 L275.31,115.957283 L275.31,113.543378 C277.826584,113.594121 279.460419,113.196464 280.193365,112.459141 C281.826164,110.931681 282.962384,108.860548 283.699995,106.198626 L283.699995,106.198626 L275.850638,84.8043478 L279.061291,84.8043478 Z M133.005,75 L133.005,105.519346 C131.476793,106.547978 129.44905,107.086957 126.926964,107.086957 C125.887389,107.086957 124.90026,106.942064 123.863281,106.694412 C122.527203,106.357357 121.339636,105.869245 120.302658,105.179722 C118.968657,104.295982 117.982047,103.175893 117.286747,101.804041 C116.446571,100.189674 116,98.2793567 116,96.0314714 C116,94.4145355 116.295983,92.9491712 116.893661,91.5778327 C117.434738,90.2609573 118.176773,89.1352163 119.213752,88.1517987 C120.204516,87.2259268 121.339636,86.4927309 122.675195,85.9573488 C123.960903,85.413746 125.345792,85.1712312 126.776376,85.1712312 C127.877687,85.1712312 128.819396,85.2905856 129.639432,85.5213555 L129.941317,85.6131013 L129.941317,75 L133.005,75 Z M261.457352,75 L261.457352,85.9476069 C262.519864,85.4485294 264.040862,85.2062387 265.971831,85.2062387 C267.140968,85.2062387 268.304241,85.3988288 269.375816,85.8425107 C270.539089,86.2918876 271.504573,86.9726832 272.3645,87.8134527 C273.277205,88.7065116 273.991056,89.7859479 274.499121,91.0191456 C275.058366,92.3543333 275.31,93.8313749 275.31,95.4544123 C275.31,97.7717058 274.903761,99.744201 274.092882,101.469228 C273.382763,102.901746 272.417279,104.029848 271.147382,104.971054 C270.086468,105.708798 268.912533,106.304171 267.598387,106.641204 C266.584921,106.93889 265.565592,107.086957 264.552659,107.086957 C261.959553,107.086957 259.883575,106.641204 258.305,105.754875 L258.305,105.754875 L258.305,75 L261.457352,75 Z M158.742121,84.8043478 C159.565182,84.8043478 160.287647,84.9500994 161.015193,85.189333 C161.834698,85.4285666 162.514994,85.8602928 163.094693,86.3794699 C164.496438,87.6681149 165.225,89.5468023 165.225,91.9848742 L165.225,91.9848742 L165.225,105.763423 L162.270616,105.763423 L162.270616,91.8371123 C162.22489,88.9235887 161.015193,87.4891922 158.548041,87.4891922 C157.722947,87.4891922 156.950184,87.6284101 156.225178,87.9666543 C155.49814,88.2501159 154.822417,88.6320856 154.241701,89.158299 C153.708236,89.638274 153.271302,90.162477 152.935472,90.787701 C152.600151,91.3551269 152.452813,91.937128 152.452813,92.5085747 L152.452813,92.5085747 L152.452813,105.763423 L150.131983,105.763423 L149.645767,102.993138 C148.193724,105.146241 146.019215,106.195652 143.164411,106.195652 C142.14727,106.195652 141.229709,106.051408 140.40868,105.719195 C139.58257,105.43121 138.907862,104.95023 138.375921,104.328524 C137.214998,103.08461 136.632758,101.309456 136.632758,99.0196491 C136.632758,96.0945659 136.632758,91.5048992 136.585,85.2340637 L136.585,85.2340637 L139.58257,85.2340637 L139.58257,98.9693899 C139.58257,101.937193 140.842565,103.421346 143.313782,103.421346 C144.229311,103.421346 145.14738,103.275092 145.97349,102.939361 C146.696463,102.651879 147.32392,102.269406 147.856878,101.791442 C148.343094,101.363736 148.726681,100.881751 149.019325,100.360061 C149.259131,99.8338475 149.403929,99.3981006 149.403929,99.0196491 L149.403929,99.0196491 L149.403929,85.2340637 L151.871589,85.2340637 L152.256701,87.9666543 C154.241701,85.8602928 156.372516,84.8043478 158.742121,84.8043478 Z M247.275196,84.8043478 C248.104372,84.8043478 248.842616,84.9491146 249.578291,85.1863713 C250.405412,85.4336812 251.094337,85.8579284 251.728291,86.3877346 C253.142103,87.6785719 253.83,89.5409363 253.83,91.986892 L253.83,91.986892 L253.83,105.771908 L250.844659,105.771908 L250.844659,91.8411198 C250.992616,88.9251748 249.768375,87.4875601 247.130835,87.4875601 C246.345327,87.4875601 245.567012,87.6313216 244.831851,87.9133152 C244.144467,88.1540906 243.511026,88.5371194 242.925363,89.0146487 C242.385423,89.4494518 241.896856,89.97775 241.555733,90.5025297 C241.212555,91.0725489 241.012197,91.5988365 240.918696,92.1326641 L240.918696,92.1326641 L240.918696,105.771908 L237.983701,105.771908 L237.983701,91.8411198 C237.933355,88.9251748 236.709627,87.4875601 234.219531,87.4875601 C233.381622,87.4875601 232.600224,87.6313216 231.818826,87.9671001 C231.088288,88.2521098 230.451251,88.6331279 229.865074,89.1604208 C229.329758,89.6379502 228.883832,90.1707724 228.543222,90.7900526 C228.20364,91.3635905 228.054656,91.9366257 228.054656,92.5111689 L228.054656,92.5111689 L228.054656,105.771908 L225.704811,105.771908 L225.221382,102.990174 C223.313867,105.144082 221.108896,106.195652 218.665037,106.195652 C217.633448,106.195652 216.656315,106.053901 215.826625,105.71762 C214.994367,105.383852 214.25972,104.955584 213.673029,104.333288 C213.035992,103.708981 212.602909,102.990174 212.305454,102.087894 C211.961249,101.173551 211.816888,100.169734 211.816888,99.0201453 C211.816888,96.0981683 211.816888,91.5068493 211.765,85.2381455 L211.765,85.2381455 L214.747772,85.2381455 L214.747772,98.9749057 C214.603925,101.939106 215.92475,103.424977 218.810425,103.424977 C219.736184,103.424977 220.666566,103.279204 221.498825,102.944934 C222.186722,102.655903 222.820677,102.275388 223.406854,101.797858 C223.89542,101.360542 224.286376,100.887536 224.533484,100.363259 C224.779052,99.8294319 224.923413,99.4036768 224.923413,99.0201453 L224.923413,99.0201453 L224.923413,85.2381455 L227.268634,85.2381455 L227.710964,88.0173664 C229.668312,85.8579284 231.91695,84.8043478 234.410129,84.8043478 C235.633856,84.8043478 236.760487,85.0968974 237.73762,85.623185 C238.866306,86.2419625 239.741718,87.2020478 240.281659,88.3988872 C240.42602,88.2521098 240.673642,88.0173664 240.918696,87.7720671 C241.454526,87.343296 241.947203,86.9115089 242.483033,86.5289828 C244.194813,85.3809017 245.758637,84.8043478 247.275196,84.8043478 Z M180.120079,85.6956522 C180.955702,85.6956522 181.741292,85.8382079 182.479426,86.0726874 C183.263984,86.3066754 183.954663,86.7289352 184.593245,87.2367284 C186.015353,88.4971173 186.705,90.3341194 186.705,92.7192236 L186.705,92.7192236 L186.705,106.195652 L183.708103,106.195652 L183.708103,92.5747016 C183.660647,89.7250625 182.431971,88.3221179 179.926647,88.3221179 C179.092055,88.3221179 178.302855,88.4582832 177.566784,88.7891107 C176.831229,89.0663569 176.191616,89.4399511 175.602553,89.9546263 C175.016068,90.424077 174.570402,90.9367859 174.226868,91.5483007 C173.888492,92.1032847 173.737874,92.6730159 173.737874,93.231441 L173.737874,93.231441 L173.737874,106.195652 L170.595,106.195652 L170.643487,86.1164372 L173.196782,86.1164372 L173.589834,88.7891107 C175.554066,86.7289352 177.714308,85.6956522 180.120079,85.6956522 Z M194.283591,75 L194.283591,88.0556326 C196.154439,86.0262465 198.277322,85.0112995 200.692606,85.0112995 C201.52996,85.0112995 202.312456,85.1586141 203.055102,85.4004133 C203.892456,85.6427205 204.58335,86.0785686 205.173845,86.6038215 C206.600658,87.9057781 207.29,89.804613 207.29,92.2688312 L207.29,92.2688312 L207.29,106.195652 L204.285257,106.195652 L204.285257,92.1194847 C204.236609,89.1747159 203.00542,87.7254447 200.540454,87.7254447 C199.704135,87.7254447 198.915947,87.8656476 198.127758,88.2080271 C197.387181,88.4945287 196.748557,88.8805946 196.154439,89.4124512 C195.56498,89.8975736 195.119392,90.4268903 194.777826,91.0593273 C194.484907,91.6323304 194.332238,92.221081 194.332238,92.798656 L194.332238,92.798656 L194.332238,106.195652 L191.18,106.195652 L191.18,75 L194.283591,75 Z M265.565592,87.820183 C262.723517,87.820183 261.355525,88.502014 261.457352,89.9350499 L261.457352,89.9350499 L261.457352,103.244992 C261.404573,104.029848 262.567845,104.427971 264.856539,104.427971 C265.769244,104.427971 266.632902,104.22658 267.445381,103.883852 C268.356487,103.538536 269.172164,102.998041 269.825238,102.257709 C270.539089,101.521517 271.095136,100.630529 271.504573,99.542292 C271.910279,98.416779 272.113932,97.1328452 272.113932,95.6987739 C272.113932,94.6669674 271.95986,93.7304205 271.708226,92.7918027 C271.456592,91.8578444 271.045555,91.0703995 270.48631,90.3290312 C269.930797,89.5441749 269.221211,88.9508732 268.458313,88.502014 C267.598387,88.0624738 266.632902,87.820183 265.565592,87.820183 Z M126.877633,87.911853 C126.234779,87.911853 125.546229,88.0007408 124.801079,88.2555867 C123.863281,88.5463989 122.974293,88.9862137 122.230701,89.5241647 C121.290825,90.2054666 120.598641,91.038854 120.053928,92.0248407 C119.461443,93.1952825 119.164941,94.5655933 119.164941,96.1301215 C119.164941,99.1127441 120.053928,101.31747 121.786207,102.732995 C122.480469,103.269405 123.319607,103.70922 124.305178,103.956359 C125.14847,104.205553 126.037977,104.295982 126.975775,104.295982 C128.099755,104.295982 129.018603,104.180483 129.733098,103.935973 L129.941317,103.858736 L129.941317,88.6974567 C129.200321,88.1517987 128.165419,87.911853 126.877633,87.911853 Z" id="Combined-Shape">
   </path>
  </g>
 </g>
</svg>