<?xml version="1.0" encoding="utf-8"?>
<svg viewBox="0 0 722 662" xmlns="http://www.w3.org/2000/svg">
  <g transform="matrix(0.10000000149011612, 0, 0, -0.10000000149011612, 0, 662)" fill="#000000" stroke="none">
    <path d="M2620 6145 c-443 -62 -924 -292 -1470 -701 -354 -265 -621 -539 -704 -724 -34 -74 -45 -170 -24 -210 20 -37 75 -70 117 -70 85 0 131 57 131 162 0 44 6 80 16 101 53 101 236 302 409 447 403 337 940 633 1330 735 238 61 491 73 588 26 56 -27 109 -86 125 -140 19 -60 15 -187 -8 -269 -92 -332 -540 -1012 -1168 -1774 l-155 -188 -42 0 c-225 0 -511 69 -743 180 -45 22 -94 40 -108 40 -39 0 -90 -60 -109 -125 -19 -64 -13 -80 42 -118 86 -60 143 -174 143 -287 0 -251 -177 -626 -593 -1256 -26 -39 -47 -81 -47 -92 0 -12 13 -36 28 -53 36 -40 109 -51 166 -24 35 17 696 742 1176 1290 l192 220 117 7 c886 55 1858 265 2465 534 54 24 101 44 104 44 3 0 -2 -8 -10 -17 -29 -33 -1014 -1468 -1225 -1783 -278 -417 -470 -735 -589 -978 -135 -276 -173 -380 -174 -475 0 -50 45 -183 76 -224 27 -35 72 -50 103 -34 30 16 136 158 233 311 47 75 200 327 340 560 140 234 281 465 313 513 88 135 108 227 49 227 -32 0 -122 -89 -274 -269 -152 -179 -149 -176 -150 -171 0 3 97 147 215 320 118 173 314 464 436 645 351 521 825 1212 981 1429 l143 199 155 95 c607 369 1089 780 1322 1125 143 213 207 418 162 525 -33 80 -127 142 -217 142 -96 0 -237 -92 -431 -280 -248 -241 -610 -682 -1018 -1239 l-129 -176 -167 -89 c-466 -248 -881 -395 -1527 -541 -308 -70 -762 -142 -1014 -161 l-95 -7 125 153 c500 615 784 1020 959 1369 114 228 162 375 175 531 18 224 -90 428 -275 518 l-75 37 -150 2 c-85 1 -191 -4 -245 -12z m3832 -412 c25 -22 23 -54 -8 -116 -93 -183 -447 -530 -859 -841 -136 -102 -139 -110 44 124 283 361 592 717 684 788 79 62 110 72 139 45z m-5149 -2363 c44 -9 284 -40 315 -40 7 0 -28 -48 -79 -107 -151 -174 -431 -493 -433 -493 -2 0 17 57 40 128 60 179 75 265 75 410 -1 113 1 123 17 118 9 -3 39 -10 65 -16z"/>
    <path d="M6249 3876 c-101 -87 -340 -341 -397 -422 -24 -35 -102 -89 -143 -99 -36 -9 -45 9 -20 41 35 44 28 51 -47 50 -85 -1 -155 -34 -194 -92 -28 -41 -84 -73 -130 -74 -34 0 -34 2 -2 57 43 74 23 104 -56 79 -16 -5 19 35 98 111 117 114 140 147 107 159 -24 10 -85 -37 -161 -121 -74 -83 -203 -257 -235 -317 -26 -52 -6 -59 34 -13 78 91 134 144 160 150 15 4 30 5 33 2 3 -3 -7 -27 -23 -55 -23 -42 -26 -52 -14 -66 19 -23 67 -20 126 8 44 20 53 21 71 10 26 -18 77 -4 133 36 34 25 43 28 47 15 9 -22 51 -18 109 8 l50 23 11 -20 c16 -32 64 -25 123 18 44 33 54 36 90 30 28 -5 55 -1 86 10 33 13 49 15 64 7 32 -18 82 -12 139 14 40 19 58 22 72 15 31 -17 72 -11 135 19 52 24 62 26 74 14 17 -18 57 -10 138 30 69 33 132 81 121 92 -4 4 -19 -2 -35 -13 -40 -28 -150 -82 -167 -82 -56 0 11 91 129 175 103 73 109 79 101 100 -14 38 -157 -73 -252 -197 -54 -69 -131 -118 -186 -118 -21 0 -38 3 -38 7 0 3 32 39 70 79 39 39 70 79 70 88 0 48 -96 -18 -152 -105 -34 -53 -89 -92 -146 -104 -58 -12 -51 17 22 87 68 65 87 108 47 108 -20 0 -136 -117 -145 -148 -7 -22 -41 -39 -96 -48 -45 -7 -48 -3 -20 33 11 14 20 32 20 39 0 30 -33 11 -104 -60 -100 -100 -147 -116 -106 -36 35 68 106 137 232 222 169 114 309 266 283 307 -15 25 -55 8 -126 -53z m101 26 c0 -4 -25 -38 -55 -74 -54 -65 -148 -144 -210 -175 -24 -13 -18 -2 36 58 71 80 202 199 219 199 5 0 10 -4 10 -8z m-730 -505 c0 -26 -85 -87 -120 -87 -43 0 -11 49 55 83 37 20 65 21 65 4z"/>
    <path d="M5362 2594 c-103 -51 -194 -186 -196 -288 -2 -139 111 -181 208 -78 181 192 206 232 192 305 -4 19 -18 47 -33 61 -35 35 -100 36 -171 0z"/>
  </g>
</svg>