<?xml version="1.0" encoding="utf-8"?>
<svg viewBox="577.763 521.621 343.35 115.087" style="enable-background:new 0 0 1700 1200;" xmlns="http://www.w3.org/2000/svg">
  <defs>
    <style type="text/css">
	.st0{fill-rule:evenodd;clip-rule:evenodd;fill:#05DEBA;}
</style>
  </defs>
  <g transform="matrix(1.0743199586868286, 0, 0, 1.0743199586868286, 1.7389569282531738, -53.16997146606445)" style="">
    <path id="letter_o" class="st1" d="M 561.191 614.145 C 548.521 614.145 537.081 606.075 537.081 588.435 C 537.081 570.805 548.511 562.735 561.191 562.735 C 573.861 562.735 585.281 570.805 585.281 588.435 C 585.281 606.075 573.871 614.145 561.191 614.145 M 561.191 573.575 C 551.611 573.575 549.861 582.205 549.861 588.445 C 549.861 594.675 551.611 603.325 561.191 603.325 C 570.771 603.325 572.521 594.675 572.521 588.445 C 572.521 582.205 570.771 573.575 561.191 573.575" style="fill: rgb(255, 102, 0);"/>
    <path id="letter_r" class="st1" d="M 594.071 564.015 L 606.271 564.015 L 606.271 569.735 C 608.601 566.645 614.321 563.005 619.691 563.005 C 620.201 563.005 620.831 563.005 621.351 563.075 L 621.351 575.115 L 620.721 575.115 C 615.151 575.115 609.051 575.985 607.081 580.315 L 607.081 612.725 L 594.071 612.725 L 594.071 564.015 Z" style="fill: rgb(255, 102, 0);"/>
    <path id="letter_a" class="st1" d="M 655.421 608.485 C 650.461 611.745 645.091 613.325 639.321 613.325 C 630.231 613.325 624.851 607.275 624.851 599.155 C 624.851 588.245 634.871 582.485 655.531 580.165 L 655.531 577.445 C 655.531 573.905 652.851 571.835 647.891 571.835 C 642.931 571.835 638.901 573.805 636.001 577.445 L 627.351 572.515 C 631.891 566.165 638.801 562.985 648.091 562.985 C 660.801 562.985 667.931 568.495 667.931 577.445 C 667.931 577.445 667.911 612.665 667.931 612.745 L 656.561 612.745 L 655.421 608.485 Z M 637.461 598.225 C 637.461 601.505 639.521 604.565 643.241 604.565 C 647.271 604.565 651.191 602.905 655.121 599.435 L 655.121 587.895 C 643.141 589.375 637.461 592.465 637.461 598.225" style="fill: rgb(255, 102, 0);"/>
    <path id="letter_n" class="st1" d="M 678.051 565.315 L 688.671 563.855 L 689.841 569.635 C 695.821 565.255 700.581 562.925 706.561 562.925 C 716.581 562.925 721.761 568.245 721.761 578.775 L 721.761 612.685 L 708.931 612.685 L 708.931 581.005 C 708.931 575.045 707.391 572.355 702.751 572.355 C 698.931 572.355 695.111 574.085 690.741 577.755 L 690.741 612.685 L 678.051 612.685 L 678.051 565.315 Z" style="fill: rgb(255, 102, 0);"/>
    <path id="letter_g" class="st1" d="M 753.141 602.255 C 762.861 602.185 763.691 592.285 763.691 585.845 C 763.691 578.205 759.971 572.035 753.061 572.035 C 748.461 572.035 743.311 575.395 743.311 586.375 C 743.301 592.365 743.731 602.345 753.141 602.255 M 776.001 563.845 L 776.001 609.965 C 776.001 618.085 775.361 631.525 752.171 631.645 C 742.591 631.715 733.701 627.875 731.941 619.515 L 744.581 617.475 C 745.111 619.865 746.581 622.245 753.751 622.245 C 760.391 622.245 763.591 619.065 763.591 611.455 L 763.591 605.785 L 763.421 605.615 C 761.381 609.265 758.291 612.715 750.851 612.715 C 739.481 612.715 730.551 604.835 730.551 588.365 C 730.551 572.075 739.771 562.945 750.121 562.935 C 759.851 562.915 763.441 567.355 764.291 569.675 L 764.121 569.655 L 765.191 563.825 L 776.001 563.825 L 776.001 563.845 Z" style="fill: rgb(255, 102, 0);"/>
    <path id="letter_e" class="st1" d="M 806.651 613.615 C 792.291 613.615 783.731 604.375 783.731 588.355 C 783.731 572.145 792.391 562.925 806.441 562.925 C 820.491 562.925 828.851 571.875 828.851 587.715 C 828.851 588.565 828.751 589.395 828.751 590.235 L 796.321 590.235 C 796.401 599.475 800.241 604.135 807.791 604.135 C 812.631 604.135 815.841 602.185 818.851 597.905 L 828.231 603.105 C 824.101 609.995 816.661 613.615 806.651 613.615 M 816.271 581.915 C 816.271 575.405 812.531 571.565 806.451 571.565 C 800.661 571.565 797.041 575.315 796.531 581.915 L 816.271 581.915 Z" style="fill: rgb(255, 102, 0);"/>
    <path id="letter_TM" class="st1" d="M 850.801 545.535 L 846.081 557.745 L 841.271 545.535 L 837.161 545.535 L 837.161 561.645 L 839.831 561.645 L 839.831 548.205 L 839.901 548.205 L 845.181 561.645 L 846.881 561.645 L 852.131 548.205 L 852.211 548.205 L 852.211 561.645 L 854.861 561.645 L 854.861 545.535 L 850.801 545.535 Z M 821.161 545.535 L 821.161 547.675 L 826.191 547.675 L 826.191 561.635 L 828.861 561.635 L 828.861 547.675 L 833.911 547.675 L 833.911 545.535 L 821.161 545.535 Z" style="fill: rgb(255, 102, 0);"/>
  </g>
</svg>