<?xml version="1.0" encoding="utf-8"?>
<svg viewBox="498.18 521.621 502.85 115.087" style="enable-background:new 0 0 1700 1200;" xmlns="http://www.w3.org/2000/svg">
  <defs>
    <style type="text/css">
	.st0{fill-rule:evenodd;clip-rule:evenodd;fill:#05DEBA;}
</style>
  </defs>
  <path class="st0" d="M 587.675 551.642 C 591.073 551.642 593.822 554.429 593.822 557.904 C 593.861 561.302 591.112 564.089 587.713 564.127 C 587.713 564.127 587.713 564.127 587.675 564.127 L 552.738 564.127 L 552.738 601.012 C 552.776 604.41 550.027 607.197 546.629 607.235 C 546.629 607.235 546.629 607.235 546.629 607.235 C 543.269 607.235 540.52 604.448 540.52 601.012 L 540.52 564.127 L 505.545 564.127 C 502.185 564.127 499.435 561.34 499.435 557.904 C 499.397 554.505 502.146 551.718 505.545 551.68 C 505.545 551.68 505.545 551.68 505.545 551.68 L 587.675 551.642 Z M 992.677 551.718 C 996.075 551.413 999.053 553.894 999.397 557.293 C 999.397 557.484 999.435 557.675 999.435 557.865 L 999.435 595.284 C 999.435 598.873 997.908 602.386 995.12 604.525 C 991.684 607.235 986.988 607.617 983.169 605.479 L 917.534 567.144 C 916.35 566.495 914.861 566.877 914.212 568.06 C 913.983 568.442 913.868 568.9 913.906 569.32 L 913.906 600.935 C 913.906 604.334 911.157 607.121 907.759 607.121 C 907.568 607.121 907.377 607.121 907.186 607.083 C 903.979 606.815 901.65 603.875 901.65 600.63 L 901.65 563.211 C 901.65 559.622 903.177 556.109 905.964 553.971 C 909.286 551.336 913.868 550.916 917.648 552.864 L 917.915 553.016 L 983.551 591.313 C 984.697 592.001 986.186 591.657 986.911 590.473 C 987.14 590.053 987.293 589.595 987.255 589.137 L 987.255 558.133 C 987.217 554.964 989.508 552.024 992.677 551.718 Z M 748.042 552.634 C 750.562 550.382 754.418 550.611 756.671 553.207 C 758.924 555.804 758.656 559.736 756.098 562.027 C 748.042 569.358 738.725 575.162 728.607 579.171 C 738.725 583.18 748.042 588.984 756.098 596.315 C 758.656 598.606 758.885 602.539 756.671 605.135 C 754.494 607.655 750.676 607.961 748.118 605.785 C 748.08 605.746 748.042 605.746 748.042 605.708 C 724.445 584.517 700.046 585.701 694.777 586.235 L 694.777 600.821 C 694.815 604.219 692.104 607.045 688.706 607.083 C 688.706 607.083 688.668 607.083 688.668 607.083 C 685.308 607.083 682.559 604.295 682.559 600.859 L 682.559 557.904 C 682.52 554.505 685.27 551.718 688.668 551.68 C 688.668 551.68 688.668 551.68 688.668 551.68 C 692.028 551.68 694.777 554.467 694.777 557.904 L 694.777 572.108 C 697.106 572.337 703.101 572.68 711.043 571.268 C 724.521 568.786 737.007 562.562 748.042 552.634 Z M 666.255 551.68 C 669.615 551.68 672.364 554.467 672.364 557.904 C 672.402 561.149 669.882 563.898 666.636 564.127 L 626.774 564.127 C 618.45 564.204 611.768 571 611.845 579.324 C 611.768 587.457 618.145 594.177 626.239 594.521 L 666.255 594.521 C 669.615 594.521 672.364 597.308 672.364 600.783 C 672.402 604.028 669.882 606.739 666.636 606.968 L 626.774 606.968 C 611.616 606.854 599.435 594.483 599.588 579.324 C 599.588 579.324 599.588 579.324 599.588 579.324 C 599.588 564.28 611.425 552.024 626.125 551.68 C 626.125 551.68 666.255 551.68 666.255 551.68 Z M 775.495 551.642 C 778.855 551.642 781.604 554.429 781.604 557.865 L 781.604 600.744 C 781.642 604.143 778.893 606.93 775.495 606.968 C 775.495 606.968 775.495 606.968 775.495 606.968 C 772.135 606.968 769.386 604.181 769.386 600.744 L 769.386 557.904 C 769.386 554.467 772.097 551.68 775.495 551.642 C 775.495 551.68 775.495 551.68 775.495 551.642 Z M 865.758 551.642 C 880.038 551.756 891.57 563.44 891.455 577.759 L 891.455 580.851 C 891.455 595.246 879.962 606.968 865.758 606.968 L 818.641 606.968 C 804.361 606.815 792.906 595.132 793.021 580.851 L 793.021 577.759 C 793.021 563.364 804.513 551.642 818.679 551.642 L 865.758 551.642 Z M 865.758 564.089 L 818.641 564.089 C 811.157 564.166 805.163 570.275 805.239 577.759 L 805.239 580.851 C 805.163 588.335 811.157 594.444 818.641 594.521 C 818.641 594.521 818.679 594.521 818.679 594.521 L 865.796 594.521 C 873.28 594.444 879.275 588.335 879.198 580.851 L 879.198 577.759 C 879.275 570.313 873.242 564.166 865.758 564.089 C 865.796 564.089 865.796 564.089 865.758 564.089 Z M 661.1 573.1 C 664.46 573.1 667.209 575.888 667.209 579.324 C 667.247 582.608 664.727 585.319 661.444 585.548 L 626.812 585.548 C 623.414 585.548 620.665 582.76 620.665 579.324 C 620.665 576.002 623.185 573.329 626.43 573.138 L 661.1 573.1 Z"/>
</svg>