<?xml version="1.0" encoding="utf-8"?>
<svg viewBox="553.774 521.621 391.385 115.087" style="enable-background:new 0 0 1700 1200;" xmlns="http://www.w3.org/2000/svg">
  <defs>
    <style type="text/css">
	.st0{fill-rule:evenodd;clip-rule:evenodd;fill:#05DEBA;}
</style>
  </defs>
  <path d="M 634.8 626.346 C 634.797 625.632 634.416 625.002 633.869 624.623 L 626.154 619.243 C 625.816 618.949 625.353 618.78 624.849 618.78 C 623.714 618.78 622.793 619.705 622.797 620.798 L 622.844 631.894 C 622.849 633.03 623.777 633.954 624.911 633.954 C 625.374 633.954 625.836 633.786 626.171 633.534 L 633.925 628.07 L 633.967 628.027 C 634.469 627.649 634.803 627.019 634.8 626.346 Z M 621.269 616.889 C 621.266 616.175 620.884 615.544 620.337 615.165 L 612.58 609.785 C 612.244 609.491 611.78 609.323 611.275 609.323 C 610.141 609.323 609.22 610.248 609.224 611.341 L 609.27 622.438 C 609.275 623.572 610.203 624.497 611.338 624.497 C 611.801 624.497 612.263 624.329 612.597 624.077 L 620.351 618.613 L 620.393 618.571 C 620.938 618.192 621.272 617.562 621.269 616.889 Z M 607.737 607.432 C 607.734 606.717 607.353 606.088 606.806 605.708 L 599.091 600.328 C 598.753 600.034 598.29 599.866 597.786 599.866 C 596.651 599.866 595.73 600.79 595.734 601.884 L 595.78 612.981 C 595.785 614.115 596.714 615.039 597.848 615.039 C 598.311 615.039 598.773 614.872 599.108 614.619 L 606.861 609.155 L 606.904 609.113 C 607.406 608.735 607.74 608.146 607.737 607.432 Z M 594.206 598.016 C 594.203 597.302 593.821 596.671 593.274 596.293 L 585.559 590.913 C 585.222 590.619 584.759 590.45 584.254 590.45 C 583.12 590.45 582.199 591.375 582.203 592.468 L 582.249 603.564 C 582.253 604.7 583.182 605.625 584.317 605.625 C 584.779 605.625 585.242 605.456 585.577 605.204 L 593.33 599.739 L 593.372 599.698 C 593.875 599.277 594.209 598.689 594.206 598.016 Z M 580.674 588.559 C 580.671 587.845 580.291 587.214 579.742 586.835 L 572.028 581.455 C 571.69 581.161 571.227 580.993 570.723 580.993 C 569.589 580.993 568.668 581.918 568.671 583.01 L 568.718 594.107 C 568.723 595.242 569.651 596.167 570.785 596.167 C 571.248 596.167 571.71 595.999 572.045 595.747 L 579.799 590.283 L 579.84 590.241 C 580.343 589.863 580.676 589.232 580.674 588.559 Z M 567.142 579.102 C 567.14 578.387 566.758 577.757 566.211 577.378 L 558.496 571.998 C 558.16 571.704 557.696 571.536 557.192 571.536 C 556.057 571.536 555.136 572.46 555.14 573.554 L 555.186 584.65 C 555.191 585.785 556.119 586.709 557.254 586.709 C 557.716 586.709 558.178 586.542 558.513 586.289 L 566.267 580.825 L 566.309 580.783 C 566.811 580.405 567.146 579.816 567.142 579.102 Z M 634.722 607.475 C 634.719 606.759 634.338 606.129 633.791 605.751 L 626.076 600.37 C 625.739 600.076 625.275 599.908 624.772 599.908 C 623.637 599.908 622.716 600.833 622.72 601.926 L 622.766 613.023 C 622.77 614.157 623.699 615.082 624.834 615.082 C 625.296 615.082 625.758 614.914 626.093 614.661 L 633.847 609.197 L 633.889 609.155 C 634.391 608.777 634.726 608.189 634.722 607.475 Z M 621.191 598.016 C 621.188 597.302 620.807 596.671 620.26 596.293 L 612.502 590.913 C 612.165 590.619 611.701 590.45 611.197 590.45 C 610.062 590.45 609.141 591.375 609.146 592.468 L 609.192 603.564 C 609.197 604.7 610.126 605.625 611.26 605.625 C 611.722 605.625 612.185 605.456 612.52 605.204 L 620.273 599.739 L 620.315 599.698 C 620.86 599.319 621.194 598.731 621.191 598.016 Z M 607.659 588.601 C 607.656 587.887 607.275 587.256 606.727 586.878 L 599.013 581.498 C 598.676 581.203 598.212 581.035 597.708 581.035 C 596.574 581.035 595.652 581.96 595.657 583.053 L 595.704 594.15 C 595.708 595.284 596.637 596.209 597.771 596.209 C 598.233 596.209 598.695 596.041 599.031 595.789 L 606.784 590.325 L 606.826 590.283 C 607.328 589.863 607.662 589.274 607.659 588.601 Z M 594.128 579.144 C 594.125 578.429 593.744 577.799 593.196 577.421 L 585.482 572.04 C 585.144 571.746 584.682 571.578 584.176 571.578 C 583.043 571.578 582.122 572.503 582.126 573.596 L 582.171 584.693 C 582.176 585.827 583.104 586.751 584.239 586.751 C 584.702 586.751 585.164 586.584 585.498 586.331 L 593.253 580.867 L 593.294 580.825 C 593.797 580.447 594.13 579.816 594.128 579.144 Z M 580.597 569.729 C 580.593 569.014 580.212 568.383 579.665 568.005 L 571.95 562.625 C 571.613 562.331 571.149 562.162 570.645 562.162 C 569.511 562.162 568.589 563.087 568.594 564.18 L 568.64 575.277 C 568.645 576.412 569.573 577.336 570.708 577.336 C 571.17 577.336 571.632 577.168 571.968 576.916 L 579.722 571.452 L 579.763 571.409 C 580.265 570.99 580.599 570.401 580.597 569.729 Z M 634.644 588.559 C 634.642 587.845 634.261 587.214 633.712 586.835 L 625.998 581.455 C 625.661 581.161 625.198 580.993 624.693 580.993 C 623.559 580.993 622.638 581.918 622.642 583.01 L 622.688 594.107 C 622.692 595.242 623.621 596.167 624.756 596.167 C 625.218 596.167 625.68 595.999 626.015 595.747 L 633.769 590.283 L 633.81 590.241 C 634.313 589.863 634.647 589.274 634.644 588.559 Z M 621.113 579.144 C 621.11 578.429 620.729 577.799 620.181 577.421 L 612.425 571.998 C 612.087 571.704 611.624 571.536 611.12 571.536 C 609.985 571.536 609.064 572.46 609.068 573.554 L 609.114 584.65 C 609.119 585.785 610.048 586.709 611.182 586.709 C 611.645 586.709 612.106 586.542 612.442 586.289 L 620.195 580.825 L 620.238 580.783 C 620.782 580.405 621.115 579.816 621.113 579.144 Z M 634.567 569.729 C 634.564 569.014 634.183 568.383 633.636 568.005 L 625.92 562.625 C 625.582 562.331 625.12 562.162 624.615 562.162 C 623.481 562.162 622.56 563.087 622.564 564.18 L 622.61 575.277 C 622.614 576.412 623.543 577.336 624.678 577.336 C 625.141 577.336 625.603 577.168 625.938 576.916 L 633.692 571.452 L 633.732 571.409 C 634.236 570.99 634.569 570.401 634.567 569.729 Z M 621.035 560.271 C 621.032 559.557 620.651 558.925 620.103 558.548 L 612.347 553.167 C 612.01 552.873 611.546 552.705 611.042 552.705 C 609.907 552.705 608.986 553.63 608.99 554.722 L 609.036 565.819 C 609.041 566.954 609.97 567.879 611.105 567.879 C 611.567 567.879 612.029 567.711 612.364 567.459 L 620.118 561.995 L 620.159 561.952 C 620.704 561.574 621.038 560.944 621.035 560.271 Z M 634.489 550.814 C 634.486 550.099 634.105 549.469 633.557 549.09 L 625.842 543.71 C 625.504 543.416 625.042 543.248 624.537 543.248 C 623.403 543.248 622.483 544.172 622.487 545.266 L 622.532 556.362 C 622.536 557.496 623.465 558.421 624.6 558.421 C 625.063 558.421 625.524 558.254 625.859 558.001 L 633.613 552.537 L 633.654 552.495 C 634.158 552.075 634.491 551.486 634.489 550.814 Z M 620.957 541.356 C 620.955 540.641 620.574 540.012 620.025 539.633 L 612.269 534.252 C 611.931 533.959 611.468 533.79 610.963 533.79 C 609.829 533.79 608.908 534.714 608.913 535.808 L 608.958 546.904 C 608.963 548.039 609.892 548.964 611.027 548.964 C 611.489 548.964 611.951 548.796 612.286 548.544 L 620.04 543.079 L 620.081 543.038 C 620.626 542.617 620.96 542.029 620.957 541.356 Z M 634.411 531.941 C 634.407 531.227 634.027 530.595 633.479 530.218 L 625.765 524.837 C 625.427 524.543 624.964 524.375 624.46 524.375 C 623.324 524.375 622.404 525.3 622.409 526.392 L 622.455 537.489 C 622.459 538.624 623.388 539.549 624.523 539.549 C 624.985 539.549 625.447 539.38 625.781 539.129 L 633.535 533.664 L 633.577 533.622 C 634.08 533.244 634.413 532.613 634.411 531.941 Z M 685.625 556.824 L 690.795 556.824 L 676.045 598.269 L 671.295 598.269 L 656.286 556.824 L 661.373 556.824 L 671.025 583.641 C 672.13 586.709 673.025 589.736 673.667 592.637 C 674.327 589.567 675.197 586.542 676.277 583.472 L 685.625 556.824 Z M 719.274 582.674 C 719.295 587.718 718.051 591.712 715.498 594.528 C 712.946 597.385 709.421 598.772 704.923 598.772 C 702.149 598.772 699.666 598.101 697.517 596.798 C 695.369 595.494 693.68 593.603 692.492 591.165 C 691.305 588.727 690.705 585.869 690.691 582.591 C 690.67 577.546 691.916 573.596 694.426 570.737 C 696.935 567.921 700.461 566.492 704.958 566.492 C 709.288 566.492 712.782 567.921 715.316 570.821 C 717.976 573.847 719.254 577.757 719.274 582.674 Z M 695.609 582.674 C 695.626 586.625 696.437 589.652 698.043 591.753 C 699.649 593.855 701.965 594.864 705.075 594.864 C 708.144 594.864 710.494 593.813 712.081 591.753 C 713.671 589.694 714.457 586.668 714.44 582.674 C 714.424 578.723 713.613 575.739 712.007 573.68 C 710.402 571.62 708.043 570.611 704.933 570.611 C 701.865 570.611 699.515 571.62 697.968 573.638 C 696.38 575.655 695.593 578.681 695.609 582.674 Z M 733.311 582.339 L 722.447 567.165 L 727.785 567.165 L 736.03 579.06 L 744.136 567.165 L 749.433 567.165 L 738.692 582.339 L 750.106 598.227 L 744.768 598.227 L 736.015 585.659 L 727.283 598.227 L 721.943 598.227 L 733.311 582.339 Z M 768.813 598.815 C 766.795 598.815 764.945 598.436 763.261 597.68 C 761.576 596.923 760.184 595.789 759.043 594.233 L 758.706 594.233 C 758.924 596.041 759.058 597.765 759.064 599.403 L 759.116 612.182 L 754.41 612.182 L 754.224 567.206 L 758.048 567.206 L 758.739 571.452 L 758.949 571.452 C 760.161 569.77 761.543 568.509 763.136 567.753 C 764.731 566.996 766.579 566.618 768.638 566.618 C 772.758 566.618 775.958 568.005 778.197 570.821 C 780.436 573.638 781.588 577.589 781.609 582.674 C 781.63 587.76 780.511 591.753 778.254 594.569 C 775.995 597.428 772.849 598.815 768.813 598.815 Z M 768.024 570.611 C 764.829 570.611 762.564 571.493 761.142 573.259 C 759.721 575.025 759.017 577.799 758.991 581.666 L 758.995 582.717 C 759.012 587.088 759.74 590.199 761.219 592.09 C 762.699 593.981 765.015 594.906 768.251 594.906 C 770.941 594.906 773.038 593.813 774.541 591.628 C 776.046 589.441 776.79 586.458 776.775 582.632 C 776.758 578.765 775.989 575.781 774.468 573.721 C 772.905 571.662 770.757 570.611 768.024 570.611 Z M 816.159 582.674 C 816.18 587.718 814.936 591.712 812.384 594.528 C 809.831 597.385 806.306 598.772 801.809 598.772 C 799.035 598.772 796.552 598.101 794.403 596.798 C 792.255 595.494 790.564 593.603 789.378 591.165 C 788.191 588.727 787.591 585.869 787.578 582.591 C 787.557 577.546 788.801 573.596 791.312 570.737 C 793.822 567.921 797.347 566.492 801.844 566.492 C 806.174 566.492 809.668 567.921 812.202 570.821 C 814.82 573.847 816.139 577.757 816.159 582.674 Z M 792.495 582.674 C 792.511 586.625 793.323 589.652 794.928 591.753 C 796.535 593.855 798.851 594.864 801.962 594.864 C 805.03 594.864 807.378 593.813 808.967 591.753 C 810.556 589.694 811.342 586.668 811.326 582.674 C 811.31 578.723 810.498 575.739 808.893 573.68 C 807.286 571.62 804.929 570.611 801.818 570.611 C 798.75 570.611 796.401 571.62 794.854 573.638 C 793.223 575.655 792.479 578.681 792.495 582.674 Z M 836.948 598.815 C 834.931 598.815 833.08 598.436 831.395 597.68 C 829.712 596.923 828.319 595.789 827.178 594.233 L 826.842 594.233 C 827.059 596.041 827.193 597.765 827.199 599.403 L 827.252 612.182 L 822.544 612.182 L 822.359 567.206 L 826.184 567.206 L 826.874 571.452 L 827.084 571.452 C 828.296 569.77 829.678 568.509 831.272 567.753 C 832.866 566.996 834.714 566.618 836.774 566.618 C 840.893 566.618 844.093 568.005 846.332 570.821 C 848.572 573.638 849.723 577.589 849.744 582.674 C 849.765 587.76 848.647 591.753 846.389 594.569 C 844.131 597.428 840.984 598.815 836.948 598.815 Z M 836.16 570.611 C 832.966 570.611 830.699 571.493 829.277 573.259 C 827.855 575.025 827.153 577.799 827.126 581.666 L 827.131 582.717 C 827.149 587.088 827.876 590.199 829.355 592.09 C 830.834 593.981 833.149 594.906 836.386 594.906 C 839.076 594.906 841.173 593.813 842.677 591.628 C 844.182 589.441 844.925 586.458 844.91 582.632 C 844.895 578.765 844.125 575.781 842.604 573.721 C 841.041 571.662 838.891 570.611 836.16 570.611 Z M 895.667 598.269 L 895.583 578.051 C 895.573 575.571 895.019 573.721 893.962 572.46 C 892.907 571.242 891.264 570.611 889.036 570.611 C 886.094 570.611 883.955 571.452 882.574 573.133 C 881.194 574.814 880.49 577.421 880.505 580.909 L 880.576 598.269 L 875.868 598.269 L 875.785 578.051 C 875.776 575.571 875.221 573.721 874.165 572.46 C 873.109 571.242 871.425 570.611 869.197 570.611 C 866.254 570.611 864.115 571.493 862.736 573.259 C 861.356 575.025 860.696 577.925 860.712 581.96 L 860.779 598.269 L 856.071 598.269 L 855.943 567.206 L 859.768 567.206 L 860.543 571.452 L 860.752 571.452 C 861.629 569.939 862.884 568.762 864.479 567.921 C 866.072 567.081 867.878 566.66 869.896 566.66 C 874.771 566.66 877.931 568.426 879.459 571.914 L 879.669 571.914 C 880.587 570.275 881.927 569.014 883.689 568.047 C 885.45 567.123 887.423 566.618 889.693 566.618 C 893.224 566.618 895.834 567.501 897.607 569.308 C 899.379 571.116 900.231 574.016 900.248 577.966 L 900.332 598.227 L 895.666 598.227 L 895.667 598.269 Z M 921.518 598.815 C 916.937 598.815 913.317 597.428 910.615 594.612 C 907.955 591.796 906.594 587.929 906.574 582.969 C 906.553 577.966 907.756 573.974 910.223 571.031 C 912.692 568.09 915.963 566.618 920.125 566.618 C 924.033 566.618 927.107 567.879 929.387 570.443 C 931.668 573.007 932.817 576.37 932.834 580.573 L 932.846 583.557 L 911.451 583.557 C 911.551 587.214 912.487 589.988 914.26 591.879 C 916.033 593.771 918.475 594.696 921.67 594.696 C 925.032 594.696 928.308 593.981 931.58 592.594 L 931.598 596.798 C 929.92 597.512 928.367 598.016 926.897 598.353 C 925.385 598.647 923.62 598.815 921.518 598.815 Z M 920.099 570.569 C 917.619 570.569 915.605 571.368 914.14 573.007 C 912.676 574.646 911.803 576.874 911.563 579.731 L 927.787 579.731 C 927.774 576.749 927.093 574.478 925.783 572.923 C 924.474 571.368 922.579 570.569 920.099 570.569 Z M 932.674 562.331 C 932.67 561.364 932.919 560.439 933.378 559.557 C 933.837 558.673 934.548 558.001 935.387 557.539 C 936.226 557.034 937.149 556.783 938.158 556.783 C 939.125 556.783 940.051 557.034 940.935 557.496 C 941.778 558.001 942.495 558.673 942.961 559.515 C 943.427 560.355 943.725 561.28 943.729 562.289 C 943.733 563.256 943.484 564.18 943.026 565.021 C 942.567 565.861 941.897 566.534 941.016 567.039 C 940.136 567.543 939.213 567.795 938.203 567.795 C 937.195 567.795 936.269 567.543 935.384 567.039 C 934.5 566.534 933.866 565.861 933.359 565.021 C 932.934 564.222 932.679 563.298 932.674 562.331 Z M 933.473 562.331 C 933.477 563.171 933.69 563.97 934.113 564.727 C 934.537 565.483 935.129 566.03 935.887 566.45 C 936.645 566.87 937.402 567.081 938.242 567.081 C 939.083 567.081 939.881 566.87 940.636 566.45 C 941.349 566.03 941.935 565.441 942.353 564.727 C 942.769 564.012 942.976 563.213 942.972 562.331 C 942.968 561.49 942.756 560.692 942.332 559.935 C 941.909 559.22 941.318 558.632 940.601 558.211 C 939.886 557.792 939.086 557.581 938.203 557.581 C 937.363 557.581 936.565 557.792 935.81 558.211 C 935.098 558.632 934.512 559.22 934.094 559.935 C 933.677 560.649 933.47 561.49 933.473 562.331 Z M 940.445 561.027 C 940.447 561.406 940.364 561.784 940.155 562.078 C 939.947 562.373 939.654 562.625 939.275 562.751 L 941.053 565.651 L 939.834 565.651 L 938.309 563.045 L 937.3 563.045 L 937.312 565.651 L 936.219 565.651 L 936.192 559.095 L 938.126 559.095 C 938.924 559.095 939.555 559.262 939.935 559.557 C 940.314 559.85 940.443 560.355 940.445 561.027 Z M 937.255 562.12 L 938.054 562.12 C 938.432 562.12 938.768 562.036 938.977 561.826 C 939.228 561.616 939.312 561.364 939.31 561.07 C 939.309 560.692 939.182 560.439 938.971 560.271 C 938.761 560.103 938.424 560.019 937.961 560.019 L 937.162 560.019 L 937.171 562.12 L 937.255 562.12 Z" fill="#341c4c" style="opacity: 1;"/>
</svg>